<svg height='300px' width='300px'  fill="#ffffff" xmlns:dc="http://purl.org/dc/elements/1.1/" xmlns:cc="http://creativecommons.org/ns#" xmlns:rdf="http://www.w3.org/1999/02/22-rdf-syntax-ns#" xmlns:svg="http://www.w3.org/2000/svg" xmlns="http://www.w3.org/2000/svg" xmlns:sodipodi="http://sodipodi.sourceforge.net/DTD/sodipodi-0.dtd" xmlns:inkscape="http://www.inkscape.org/namespaces/inkscape" version="1.1" x="0px" y="0px" viewBox="0 0 100 100"><g transform="translate(0,-952.36218)"><path style="text-indent:0;text-transform:none;direction:ltr;block-progression:tb;baseline-shift:baseline;color:#ffffff;enable-background:accumulate;" d="m 29,959.36219 c -2.75271,0 -5,2.2473 -5,5 l 0,76.00001 c 0,2.7527 2.24729,5 5,5 l 42,0 c 2.75271,0 5,-2.2473 5,-5 l 0,-76.00001 c 0,-2.7527 -2.24729,-5 -5,-5 l -42,0 z m 0,2 42,0 c 1.67931,0 3,1.3207 3,3 l 0,5 -48,0 0,-5 c 0,-1.6793 1.32069,-3 3,-3 z m 15,3 c -0.5523,0 -1,0.4477 -1,1 0,0.5523 0.4477,1 1,1 l 12,0 c 0.5523,0 1,-0.4477 1,-1 0,-0.5523 -0.4477,-1 -1,-1 l -12,0 z m -18,7 48,0 0,58.00001 -48,0 0,-58.00001 z m 27.90625,16.9688 a 1.0001,1.0001 0 0 0 -0.8125,0.5937 l -10,22.00001 a 1.0001,1.0001 0 1 0 1.8125,0.8437 l 10,-22.00003 a 1.0001,1.0001 0 0 0 -1,-1.43738 z m -14,3.99998 a 1.0001,1.0001 0 0 0 -0.65625,0.375 l -6,7 a 1.0001,1.0001 0 0 0 0,1.28123 l 6,7 a 1.0001,1.0001 0 1 0 1.5,-1.2812 l -5.4375,-6.3438 5.4375,-6.37503 a 1.0001,1.0001 0 0 0 -0.84375,-1.6562 z m 19.96875,0 a 1.0001,1.0001 0 0 0 -0.625,1.6562 l 5.4375,6.37503 -5.4375,6.3438 a 1.0001,1.0001 0 1 0 1.5,1.2812 l 6,-7 a 1.0001,1.0001 0 0 0 0,-1.28123 l -6,-7 a 1.0001,1.0001 0 0 0 -0.875,-0.375 z M 26,1031.3622 l 48,0 0,9 c 0,1.6793 -1.32069,3 -3,3 l -42,0 c -1.67931,0 -3,-1.3207 -3,-3 l 0,-9 z m 24,3 c -1.65683,0 -3,1.3432 -3,3 0,1.6569 1.34317,3 3,3 1.65682,0 3,-1.3431 3,-3 0,-1.6568 -1.34318,-3 -3,-3 z" fill="#000000" fill-opacity="1" stroke="none" marker="none" visibility="visible" display="inline" overflow="visible"></path></g></svg>