<svg height='300px' width='300px'  fill="#000000" xmlns="http://www.w3.org/2000/svg" xmlns:xlink="http://www.w3.org/1999/xlink" version="1.1" x="0px" y="0px" viewBox="0 0 100 100" enable-background="new 0 0 100 100" xml:space="preserve"><symbol viewBox="-27.299 -39.024 54.598 78.047"><path fill="none" d="M11.157,34.02c-1.275-1.85-3.408-3.026-5.733-3.026c-2.13,0-4.118,0.985-5.424,2.607   c-1.306-1.622-3.294-2.607-5.423-2.607c-2.325,0-4.457,1.176-5.734,3.026c-1.275-1.85-3.408-3.026-5.733-3.026   c-1.913,0-3.648,0.776-4.908,2.029v-66.474c1.26,1.253,2.995,2.029,4.908,2.029c2.325,0,4.458-1.176,5.733-3.026   c1.277,1.85,3.409,3.026,5.734,3.026c2.129,0,4.117-0.986,5.423-2.607c1.306,1.622,3.294,2.607,5.424,2.607   c2.325,0,4.458-1.176,5.733-3.026c1.277,1.85,3.409,3.026,5.734,3.026c1.913,0,3.647-0.776,4.907-2.028v66.473   c-1.26-1.253-2.994-2.028-4.907-2.028C14.567,30.995,12.435,32.17,11.157,34.02z"></path><path fill="#000000" stroke="#000000" stroke-width="3" stroke-miterlimit="10" d="M-20.463-37.524   c0.391,1.615,1.839,2.822,3.573,2.822c1.733,0,3.181-1.207,3.572-2.822h4.323c0.391,1.615,1.839,2.822,3.573,2.822   s3.182-1.207,3.573-2.822h3.701c0.391,1.615,1.839,2.822,3.573,2.822s3.182-1.207,3.573-2.822h4.322   c0.391,1.615,1.839,2.822,3.573,2.822s3.182-1.207,3.573-2.822h5.335v75.047h-5.266c-0.219-1.825-1.759-3.25-3.641-3.25   s-3.423,1.425-3.641,3.25H9.065c-0.219-1.825-1.759-3.25-3.641-3.25s-3.423,1.425-3.641,3.25h-3.564   c-0.219-1.825-1.759-3.25-3.641-3.25s-3.423,1.425-3.641,3.25h-4.186c-0.219-1.825-1.758-3.25-3.641-3.25   c-1.883,0-3.423,1.425-3.641,3.25h-5.267v-75.047H-20.463z"></path></symbol><symbol viewBox="-30.282 -48.056 60.563 94.113"><path fill="#000000" stroke="#000000" stroke-width="6" stroke-miterlimit="10" d="M16.006,43.056   c-3.233-4.883-8.77-8.108-15.065-8.108s-11.832,3.225-15.065,8.108h-10.584v-88.113h10.584c3.233,4.883,8.77,8.108,15.065,8.108   s11.832-3.224,15.065-8.108H26.59v88.113H16.006z"></path><line fill="none" stroke="#000000" stroke-width="5" stroke-linecap="round" stroke-linejoin="round" stroke-miterlimit="10" stroke-dasharray="7,8" x1="27.781" y1="-20.755" x2="-27.782" y2="-20.755"></line></symbol><symbol viewBox="-24.712 -42.834 54.356 85.667"><path fill="#000000" stroke="#000000" stroke-width="5" stroke-miterlimit="10" d="M17.181,40.333h-4.475   c-0.466-2.355-2.539-4.131-5.031-4.131c-2.491,0-4.565,1.776-5.03,4.131h-4.883c-0.466-2.355-2.539-4.131-5.031-4.131   c-2.491,0-4.565,1.776-5.03,4.131h-4.883c-0.466-2.355-2.539-4.131-5.03-4.131v-72.023c2.622,0,4.76-1.974,5.069-4.512h4.806   c0.309,2.539,2.447,4.512,5.069,4.512c2.622,0,4.76-1.974,5.069-4.512h4.806c0.309,2.539,2.447,4.512,5.069,4.512   c2.622,0,4.76-1.974,5.069-4.512h4.398c0.309,2.539,2.447,4.512,5.069,4.512v72.023C19.72,36.202,17.647,37.978,17.181,40.333z"></path><line fill="none" stroke="#000000" stroke-width="4" stroke-linecap="round" stroke-linejoin="round" stroke-miterlimit="10" stroke-dasharray="7,6" x1="-22.644" y1="-17.395" x2="27.644" y2="-17.395"></line></symbol><symbol viewBox="-23.971 -42.094 47.944 84.188"><g><path fill="#000000" stroke="#000000" stroke-width="3.521" stroke-miterlimit="10" d="M17.182,40.333h-4.475    c-0.466-2.355-2.539-4.131-5.031-4.131c-2.491,0-4.565,1.776-5.03,4.131h-4.883c-0.466-2.355-2.539-4.131-5.031-4.131    c-2.491,0-4.565,1.776-5.03,4.131h-4.883c-0.466-2.355-2.539-4.131-5.03-4.131v-72.023c2.622,0,4.76-1.974,5.069-4.512h4.806    c0.309,2.539,2.447,4.512,5.069,4.512c2.622,0,4.76-1.974,5.069-4.512h4.806c0.309,2.539,2.447,4.512,5.069,4.512    c2.622,0,4.76-1.974,5.069-4.512h4.398c0.309,2.539,2.447,4.512,5.069,4.512v72.023C19.721,36.202,17.648,37.978,17.182,40.333z"></path></g><polygon fill="#000000" stroke="#000000" stroke-width="3.8113" stroke-miterlimit="10" points="5.14,17.02 11.952,13.853    8.431,7.217 7.524,-0.241 0.124,1.057 -7.248,-0.385 -8.301,7.053 -11.951,13.62 -5.201,16.919 -0.084,22.42  "></polygon></symbol><symbol id="a" viewBox="-21.087 -31.266 42.17 72.87"><path fill="#000000" stroke="#000000" stroke-width="5" stroke-miterlimit="10" d="M6.373,39.104h5.21c0-3.87,3.13-7,7-7v-53.87   c-3.87,0-7-3.14-7-7h-5.21"></path><path fill="#000000" stroke="#000000" stroke-width="5" stroke-miterlimit="10" d="M-6.377-28.766h-5.21c0,3.86-3.13,7-7,7v53.87   c3.87,0,7,3.13,7,7h5.21"></path><line fill="none" stroke="#000000" stroke-width="5" stroke-miterlimit="10" x1="2.373" y1="39.104" x2="-2.377" y2="39.104"></line><line fill="none" stroke="#000000" stroke-width="5" stroke-miterlimit="10" x1="2.373" y1="-28.766" x2="-2.377" y2="-28.766"></line><g><path stroke="#000000" stroke-width="0.9" stroke-miterlimit="10" d="M-9.901-10.118c0-0.994-0.806-1.8-1.8-1.8    s-1.8,0.806-1.8,1.8s0.806,1.8,1.8,1.8S-9.901-9.124-9.901-10.118z"></path><path stroke="#000000" stroke-width="0.9" stroke-miterlimit="10" d="M-2.101-10.118c0-0.994-0.806-1.8-1.8-1.8    s-1.8,0.806-1.8,1.8s0.806,1.8,1.8,1.8S-2.101-9.124-2.101-10.118z"></path><path stroke="#000000" stroke-width="0.9" stroke-miterlimit="10" d="M5.699-10.118c0-0.994-0.806-1.8-1.8-1.8s-1.8,0.806-1.8,1.8    s0.806,1.8,1.8,1.8S5.699-9.124,5.699-10.118z"></path><path stroke="#000000" stroke-width="0.9" stroke-miterlimit="10" d="M13.499-10.118c0-0.994-0.806-1.8-1.8-1.8    s-1.8,0.806-1.8,1.8s0.806,1.8,1.8,1.8S13.499-9.124,13.499-10.118z"></path></g></symbol><symbol viewBox="-21.086 -31.266 42.17 72.87"><use xlink:href="#a" width="42.17" height="72.87" x="-21.087" y="-31.266" transform="matrix(1 0 0 1 6.996482e-004 -2.671033e-004)" overflow="visible"></use><line fill="none" stroke="#000000" stroke-width="4" stroke-miterlimit="10" x1="9.224" y1="13.75" x2="-9.223" y2="13.75"></line></symbol><g display="none"><path display="inline" fill="#000000" d="M1188.792,954.743H-49.006c-2.084,0-3.789-1.705-3.789-3.789V-236.211   c0-2.084,1.705-3.789,3.789-3.789h1237.798c2.084,0,3.789,1.705,3.789,3.789V950.954   C1192.582,953.038,1190.877,954.743,1188.792,954.743z"></path></g><g><g><path d="M83.444,47.194c1.051-1.025,1.643-2.4,1.666-3.873c0.023-1.477-0.529-2.87-1.554-3.922l-0.239-0.246    c-0.609-0.624-1.336-1.052-2.108-1.323l0.748-0.729c1.051-1.024,1.64-2.4,1.659-3.874c0.019-1.475-0.534-2.865-1.559-3.917    l-0.236-0.242c-0.608-0.624-1.335-1.051-2.106-1.324l0.362-0.352c1.051-1.024,1.64-2.4,1.659-3.875    c0.019-1.474-0.534-2.865-1.559-3.916l-0.236-0.242c-1.024-1.051-2.4-1.64-3.874-1.659c-1.473-0.032-2.865,0.534-3.916,1.559    l-0.817,0.797v-9.833C71.333,7.343,68.99,5,66.111,5H40.345c-2.879,0-5.222,2.343-5.222,5.222v22.043l-4.697,4.578l-3.19,2.633    l0.138,23.046L16.761,73.134c-2.498,2.498-2.5,6.573,0,9.088l10.905,10.892c1.204,1.213,2.814,1.882,4.532,1.885    c0.004,0,0.008,0,0.011,0c1.72,0,3.335-0.668,4.548-1.882l16.561-16.56l13.774-13.426c2.049-0.392,3.673-1.981,4.116-4.012    L83.444,47.194z M71.333,24.373l2.975-2.9c0.46-0.448,1.056-0.69,1.719-0.681c0.649,0.009,1.253,0.266,1.7,0.726l0.236,0.242    c0.447,0.459,0.689,1.069,0.681,1.719c-0.009,0.649-0.266,1.253-0.725,1.7l-6.586,6.419V24.373z M71.333,35.915l4.856-4.733    c0.956-0.928,2.488-0.909,3.418,0.045l0.236,0.242c0.447,0.459,0.689,1.069,0.681,1.719c-0.009,0.649-0.266,1.253-0.725,1.7    l-8.467,8.253V35.915z M71.333,47.465l6.347-6.186c0.959-0.934,2.494-0.921,3.423,0.032l0.239,0.246    c0.447,0.458,0.687,1.068,0.677,1.716c-0.01,0.65-0.27,1.257-0.733,1.707l-9.954,9.702V47.465z M51.603,76.049l-0.001-0.002    L51.603,76.049C51.603,76.048,51.603,76.048,51.603,76.049z M50.812,74.683l-0.016,0.016c-0.042,0.041-0.077,0.08-0.125,0.116    l0.008,0.01L34.571,90.932c-0.63,0.629-1.468,0.976-2.362,0.976c-0.002,0-0.004,0-0.006,0c-0.89-0.001-1.722-0.347-2.348-0.976    L18.95,80.04c-1.298-1.306-1.299-3.423-0.003-4.719l11.062-11.062l-0.001-0.001c0.286-0.282,0.463-0.674,0.46-1.107l-0.132-22.223    l11.03-9.104c0.861,1.327,0.982,3.05,0.226,4.47c-1.152,2.161-3.451,4.367-6.833,6.557l-1.958,1.267l1.93,1.31    c5.728,3.888,8.902,8.353,9.431,13.271c0.823,7.643-5.002,14.08-5.353,14.458c-0.007,0.008-0.027,0.029-0.029,0.032    c-0.59,0.617-0.568,1.595,0.049,2.186c0.299,0.286,0.684,0.429,1.068,0.429c0.407,0,0.814-0.16,1.117-0.478    c0.137-0.143,1.706-1.823,3.246-4.498c1.169-2.029,2.316-4.629,2.813-7.595H59.33h3.231L50.812,74.683z M68.241,58.01    c0,1.175-0.956,2.13-2.13,2.13H47.334c-0.002-0.574-0.032-1.156-0.094-1.747c-0.264-2.492-1.09-4.862-2.427-7.109h23.428V58.01z     M68.241,48.193H42.558c-1.207-1.394-2.613-2.738-4.274-4.014c2.87-2.096,4.854-4.212,6.037-6.432    c1.634-3.067,0.882-6.952-1.788-9.236l-0.987-0.845l-3.33,2.749V16.363h30.026V48.193z M68.241,13.271H38.214v-3.049    c0-1.175,0.956-2.13,2.13-2.13h25.766c1.174,0,2.13,0.956,2.13,2.13V13.271z"></path><path d="M53.228,58.121c1.582,0,2.868-1.287,2.868-2.868c0-1.582-1.287-2.868-2.868-2.868c-1.582,0-2.869,1.287-2.869,2.868    C50.359,56.834,51.646,58.121,53.228,58.121z M53.228,54.445c0.445,0,0.807,0.362,0.807,0.807c0,0.445-0.362,0.807-0.807,0.807    c-0.445,0-0.808-0.362-0.808-0.807C52.42,54.808,52.782,54.445,53.228,54.445z"></path><path d="M51.821,43.369h0.57v2.864c0,1.013,0.821,1.833,1.833,1.833c1.012,0,1.833-0.821,1.833-1.833v-2.864h0.567    c2.541,0,4.531-1.562,4.531-3.555v-5.899c0-1.994-1.99-3.555-4.531-3.555h-4.803c-0.404,0-0.704-0.099-0.865-0.183v-5.444    c0.161-0.084,0.461-0.183,0.865-0.183h4.803c0.404,0,0.704,0.099,0.865,0.183v1.333c0,1.013,0.821,1.833,1.833,1.833    c1.013,0,1.833-0.821,1.833-1.833v-1.627c0-1.994-1.99-3.555-4.531-3.555h-0.567v-2.472c0-1.012-0.821-1.833-1.833-1.833    c-1.013,0-1.833,0.821-1.833,1.833v2.472h-0.57c-2.541,0-4.531,1.562-4.531,3.555v6.032c0,1.994,1.99,3.555,4.531,3.555h4.803    c0.404,0,0.704,0.099,0.865,0.183v5.311c-0.161,0.084-0.461,0.183-0.865,0.183h-2.375c-0.008,0-0.016-0.003-0.025-0.003    s-0.016,0.002-0.025,0.003h-2.378c-0.404,0-0.704-0.099-0.865-0.183V37.67c0-1.012-0.821-1.833-1.833-1.833    c-1.013,0-1.833,0.821-1.833,1.833v2.143C47.29,41.807,49.28,43.369,51.821,43.369z"></path></g></g></svg>