<svg height='300px' width='300px'  fill="#000000" xmlns="http://www.w3.org/2000/svg" xmlns:xlink="http://www.w3.org/1999/xlink" version="1.1" x="0px" y="0px" viewBox="0 0 64 64" enable-background="new 0 0 64 64" xml:space="preserve"><g display="none"><rect x="-83.975" y="-308.018" display="inline" fill="#000000" width="779" height="383"></rect></g><g><g><rect x="42.186" y="14.213" width="14.84" height="11"></rect><rect x="24.378" y="14.213" width="14.647" height="11"></rect><rect x="7.025" y="14.213" width="14.294" height="11"></rect><rect x="24.378" y="40.213" width="32.647" height="1"></rect><rect x="24.378" y="43.213" width="32.647" height="1"></rect><rect x="24.378" y="46.213" width="32.647" height="1"></rect><rect x="24.378" y="49.213" width="32.647" height="1"></rect><rect x="24.378" y="52.213" width="32.647" height="1"></rect><rect x="24.378" y="31.213" width="32.647" height="1"></rect><rect x="24.378" y="34.213" width="32.647" height="1"></rect><rect x="24.378" y="37.213" width="32.647" height="1"></rect><rect x="24.378" y="28.213" width="32.647" height="1"></rect><rect x="7.025" y="28.213" width="14.294" height="11"></rect><rect x="7.025" y="42.213" width="14.294" height="11"></rect><circle cx="5.491" cy="6.027" r="0.953"></circle><circle cx="8.35" cy="6.027" r="0.953"></circle><circle cx="11.209" cy="6.027" r="0.953"></circle><path d="M0,62h64V2H0V62z M6.886,61l1.953-2.528H56.06L58.013,61H6.886z M63,61h-3.724l-2.726-3.528H8.349L5.623,61H1V10.044    h13.341L21.385,3H63V61z M19.971,3l-6.044,6.044H1V3H19.971z"></path><rect x="23.45" y="6.344" width="35.714" height="1"></rect></g></g><g display="none"><g display="inline"><g><polygon points="8.84,58.472 6.131,62 58.79,62 56.061,58.472    "></polygon></g><g><path d="M20.962,2H0v7.044h13.926L20.962,2z M5.228,6.465c-0.526,0-0.953-0.427-0.953-0.953s0.427-0.953,0.953-0.953     s0.953,0.427,0.953,0.953S5.755,6.465,5.228,6.465z M8.087,6.465c-0.526,0-0.953-0.427-0.953-0.953s0.427-0.953,0.953-0.953     S9.04,4.985,9.04,5.512S8.614,6.465,8.087,6.465z M10.946,6.465c-0.526,0-0.953-0.427-0.953-0.953s0.427-0.953,0.953-0.953     c0.526,0,0.953,0.427,0.953,0.953S11.473,6.465,10.946,6.465z"></path></g><g><path d="M14.341,10.044H0V62h4.87l3.477-4.528h48.204L60.054,62H64V2H22.376L14.341,10.044z M21.319,53.213H7.025v-11h14.294     V53.213z M21.319,39.213H7.025v-11h14.294V39.213z M21.319,25.213H7.025v-11h14.294V25.213z M57.025,53.213H24.378v-1h32.647     V53.213z M24.378,25.213v-11h14.647v11H24.378z M57.025,50.213H24.378v-1h32.647V50.213z M57.025,47.213H24.378v-1h32.647V47.213     z M57.025,44.213H24.378v-1h32.647V44.213z M57.025,41.213H24.378v-1h32.647V41.213z M57.025,38.213H24.378v-1h32.647V38.213z      M57.025,35.213H24.378v-1h32.647V35.213z M57.025,32.213H24.378v-1h32.647V32.213z M57.025,29.213H24.378v-1h32.647V29.213z      M57.025,25.213h-14.84v-11h14.84V25.213z M23.45,6.344h35.714v1H23.45V6.344z"></path></g></g></g></svg>