<svg height='300px' width='300px'  fill="#000000" xmlns="http://www.w3.org/2000/svg" xmlns:xlink="http://www.w3.org/1999/xlink" version="1.1" x="0px" y="0px" viewBox="0 0 66 66" enable-background="new 0 0 66 66" xml:space="preserve"><g><g><g><path d="M30.72,35.767c-0.271-0.315-0.745-0.349-1.058-0.079l-4.839,4.169c-0.166,0.143-0.261,0.35-0.261,0.568     c0,0.218,0.095,0.426,0.26,0.567l4.839,4.175c0.312,0.271,0.789,0.236,1.058-0.077c0.271-0.313,0.236-0.787-0.077-1.058     l-4.181-3.607l4.18-3.601C30.955,36.554,30.99,36.081,30.72,35.767z"></path></g><g><path d="M40.625,35.688c-0.313-0.27-0.786-0.236-1.058,0.079c-0.271,0.313-0.235,0.787,0.079,1.058l4.18,3.601l-4.181,3.607     c-0.313,0.271-0.349,0.744-0.077,1.058c0.269,0.313,0.745,0.349,1.058,0.077l4.839-4.175c0.165-0.142,0.26-0.35,0.26-0.567     c0-0.219-0.095-0.426-0.261-0.568L40.625,35.688z"></path></g><g><path d="M37.915,33.296c-0.383-0.146-0.82,0.041-0.971,0.428l-5,12.864c-0.149,0.386,0.041,0.82,0.428,0.971     c0.391,0.15,0.822-0.046,0.971-0.428l5-12.864C38.492,33.881,38.302,33.447,37.915,33.296z"></path></g><g><path d="M54.939,21.796H15.348c-1.188,0-2.154,0.966-2.154,2.153c0,8.874,0,20.299,0,25.407c0,1.188,0.967,2.154,2.154,2.154     h39.592c1.188,0,2.153-0.967,2.153-2.154c0-5.116,0-16.533,0-25.407C57.093,22.762,56.127,21.796,54.939,21.796z M14.693,23.95     c0-0.36,0.294-0.653,0.654-0.653h39.592c0.36,0,0.653,0.293,0.653,0.653v4.232H14.693V23.95z M54.939,50.011H15.348     c-0.36,0-0.654-0.294-0.654-0.654V29.681h40.899v19.676C55.593,49.717,55.3,50.011,54.939,50.011z"></path></g><g><path d="M64.251,54.973h-1.552V20.581c0-2.067-1.683-3.75-3.75-3.75H17.323l-0.277-0.396c0.23-0.436,0.412-0.874,0.548-1.324     l1.24-0.215c0.359-0.063,0.622-0.375,0.622-0.739V11.52c0-0.363-0.26-0.674-0.617-0.738l-1.242-0.223     c-0.141-0.454-0.324-0.896-0.551-1.32l0.722-1.036c0.208-0.299,0.172-0.703-0.086-0.96l-1.869-1.86     c-0.259-0.256-0.662-0.292-0.957-0.085l-1.03,0.716c-0.426-0.224-0.866-0.404-1.318-0.541l-0.223-1.244     c-0.063-0.357-0.375-0.618-0.738-0.618H8.909c-0.363,0-0.675,0.261-0.738,0.618L7.948,5.472C7.49,5.609,7.049,5.79,6.626,6.012     L5.588,5.296c-0.297-0.205-0.7-0.17-0.956,0.087l-1.86,1.86C2.515,7.501,2.478,7.905,2.687,8.203l0.722,1.036     c-0.227,0.426-0.41,0.867-0.551,1.32l-1.241,0.223c-0.357,0.064-0.617,0.375-0.617,0.738v2.637c0,0.364,0.263,0.677,0.622,0.739     l1.24,0.215c0.135,0.45,0.316,0.889,0.547,1.324l-0.721,1.029c-0.208,0.298-0.174,0.702,0.083,0.96l1.86,1.869     c0.255,0.258,0.662,0.294,0.96,0.086l1.038-0.723c0.322,0.17,0.659,0.309,1.004,0.431c-0.022,0.162-0.044,0.324-0.044,0.493     v34.393H5.937c-0.414,0-0.75,0.336-0.75,0.75c0,3.75,3.051,6.667,6.658,6.667h46.498c3.671,0,6.658-2.991,6.658-6.667     C65.001,55.309,64.665,54.973,64.251,54.973z M6.16,18.156L5.25,18.79l-0.974-0.979l0.633-0.903     c0.171-0.244,0.182-0.566,0.026-0.82c-0.36-0.594-0.602-1.181-0.738-1.795c-0.066-0.297-0.305-0.524-0.604-0.577l-1.094-0.189     v-1.379l1.09-0.195c0.294-0.053,0.528-0.275,0.597-0.566c0.148-0.625,0.399-1.229,0.748-1.793C5.09,9.339,5.081,9.016,4.91,8.771     l-0.634-0.91l0.975-0.975l0.912,0.629c0.245,0.17,0.567,0.178,0.82,0.021c0.551-0.34,1.15-0.585,1.784-0.729     c0.294-0.066,0.521-0.303,0.573-0.6L9.537,5.11h1.381l0.196,1.098c0.053,0.297,0.279,0.533,0.573,0.6     c0.621,0.141,1.223,0.386,1.788,0.732c0.254,0.155,0.576,0.145,0.818-0.024l0.903-0.628l0.981,0.976l-0.634,0.909     c-0.171,0.245-0.18,0.568-0.023,0.822c0.348,0.564,0.6,1.167,0.749,1.794c0.069,0.29,0.304,0.512,0.597,0.564l1.09,0.195v1.379     l-1.094,0.189c-0.3,0.053-0.538,0.279-0.605,0.576c-0.137,0.615-0.379,1.203-0.739,1.796c-0.155,0.254-0.145,0.576,0.026,0.82     l0.632,0.902l-0.979,0.979l-0.901-0.632c-0.244-0.171-0.566-0.182-0.82-0.026c-0.572,0.348-1.16,0.59-1.797,0.741     c-0.291,0.068-0.513,0.304-0.566,0.598l-0.196,1.098H9.537l-0.196-1.098c-0.053-0.294-0.274-0.529-0.565-0.598     c-0.641-0.151-1.244-0.4-1.793-0.739C6.727,17.976,6.406,17.984,6.16,18.156z M9.089,22.067h2.457     c0.363,0,0.675-0.261,0.738-0.618l0.224-1.249c0.452-0.139,0.892-0.32,1.315-0.543l1.029,0.722     c0.297,0.208,0.702,0.174,0.961-0.084l1.869-1.869c0.028-0.028,0.043-0.064,0.066-0.095h41.2c1.24,0,2.25,1.01,2.25,2.25v34.393     H9.089V22.067z M58.343,60.89H11.845c-2.568,0-4.746-1.905-5.105-4.417c0.101,0,60.567,0.003,56.708,0     C63.083,58.968,60.933,60.89,58.343,60.89z"></path></g><g><path d="M35.337,56.715c-1.085,0-1.968,0.882-1.968,1.967c0,1.085,0.883,1.967,1.968,1.967c1.085,0,1.967-0.882,1.967-1.967     C37.304,57.597,36.422,56.715,35.337,56.715z M35.337,59.149c-0.258,0-0.468-0.209-0.468-0.467c0-0.258,0.21-0.467,0.468-0.467     c0.258,0,0.467,0.209,0.467,0.467C35.804,58.94,35.595,59.149,35.337,59.149z"></path></g><g><path d="M18.192,23.641c-1.156,0-2.097,0.941-2.097,2.098c0,1.156,0.94,2.098,2.097,2.098c1.156,0,2.098-0.941,2.098-2.098     C20.29,24.583,19.349,23.641,18.192,23.641z M18.192,26.336c-0.329,0-0.597-0.268-0.597-0.598s0.268-0.598,0.597-0.598     s0.598,0.269,0.598,0.598S18.521,26.336,18.192,26.336z"></path></g><g><path d="M22.56,23.641c-1.156,0-2.097,0.941-2.097,2.098c0,1.156,0.941,2.098,2.097,2.098c1.156,0,2.098-0.941,2.098-2.098     C24.658,24.583,23.717,23.641,22.56,23.641z M22.56,26.336c-0.329,0-0.597-0.268-0.597-0.598s0.268-0.598,0.597-0.598     c0.329,0,0.598,0.269,0.598,0.598S22.89,26.336,22.56,26.336z"></path></g><g><path d="M26.929,23.641c-1.156,0-2.097,0.941-2.097,2.098c0,1.156,0.94,2.098,2.097,2.098c1.156,0,2.098-0.941,2.098-2.098     C29.026,24.583,28.085,23.641,26.929,23.641z M26.929,26.336c-0.329,0-0.597-0.268-0.597-0.598s0.268-0.598,0.597-0.598     s0.598,0.269,0.598,0.598S27.258,26.336,26.929,26.336z"></path></g><g><path d="M52.71,24.989H35.144c-0.414,0-0.75,0.336-0.75,0.75c0,0.414,0.336,0.75,0.75,0.75H52.71c0.414,0,0.75-0.336,0.75-0.75     C53.46,25.325,53.124,24.989,52.71,24.989z"></path></g><g><path d="M14.859,12.83c0-2.555-2.078-4.633-4.632-4.633c-2.555,0-4.633,2.078-4.633,4.633c0,2.56,2.078,4.642,4.633,4.642     C12.781,17.471,14.859,15.389,14.859,12.83z M7.095,12.83c0-1.727,1.405-3.133,3.133-3.133c1.727,0,3.132,1.405,3.132,3.133     c0,1.732-1.405,3.142-3.132,3.142C8.5,15.971,7.095,14.562,7.095,12.83z"></path></g></g></g></svg>